<?xml version="1.0" encoding="UTF-8"?>
<svg version="1.1" xmlns="http://www.w3.org/2000/svg" width="147" height="163">
<path d="M0 0 C2 3 2 3 1.9375 4.875 C0.5888352 7.93197354 -1.59199505 9.70144982 -4 12 C-4.90796414 13.09421319 -5.80407131 14.1983837 -6.6875 15.3125 C-7.450625 16.199375 -8.21375 17.08625 -9 18 C-9.66 18 -10.32 18 -11 18 C-11.20625 18.639375 -11.4125 19.27875 -11.625 19.9375 C-13 22 -13 22 -15.625 23.125 C-19.9846483 22.96353154 -21.57129063 21.39160958 -24.86328125 18.6953125 C-26.99867915 17.00104799 -29.13811655 15.6077781 -31.5 14.25 C-32.1703125 13.86328125 -32.840625 13.4765625 -33.53125 13.078125 C-43.84756056 8.57290077 -57.99527843 8.0161582 -68.60546875 11.90234375 C-77.82614689 16.12911464 -84.8917192 20.82714876 -91 29 C-91.48082031 29.63679688 -91.96164063 30.27359375 -92.45703125 30.9296875 C-99.37255954 41.00003383 -101.756329 52.98551892 -100 65 C-98.46331714 70.60713286 -96.41007075 75.7379427 -93.33203125 80.67578125 C-92 83 -92 83 -92 86 C-91.34 86 -90.68 86 -90 86 C-88.7734375 87.3203125 -88.7734375 87.3203125 -87.375 89.125 C-80.27984113 97.67380118 -70.78678094 103.09222904 -59.66992188 104.24072266 C-44.35902574 105.07094387 -33.41873646 102.32142689 -21 93 C-20.67 92.67 -20.34 92.34 -20 92 C-17.25 91.625 -17.25 91.625 -14 92 C-11.5625 94.125 -11.5625 94.125 -9 97 C-7.14326734 98.58871059 -5.25603547 100.13211633 -3.35546875 101.66796875 C-2.68451172 102.32732422 -2.68451172 102.32732422 -2 103 C-2 103.66 -2 104.32 -2 105 C-1.34 105 -0.68 105 0 105 C2 108 2 108 2.02734375 110.87109375 C0.64874211 115.06980065 -1.88700759 116.73453497 -5.4375 119.0625 C-6.07349121 119.4951416 -6.70948242 119.9277832 -7.36474609 120.37353516 C-24.47680126 131.81465956 -43.5051364 136.83063189 -64 134 C-64.83660156 133.8865625 -65.67320313 133.773125 -66.53515625 133.65625 C-85.4932159 130.45033422 -103.0984087 119.96205315 -114.625 104.4375 C-127.71540157 84.32222572 -133.09585117 63.19817767 -128.375 39.3125 C-124.15084413 20.06997161 -112.02114806 3.59075305 -95.6875 -7.33984375 C-64.89634623 -26.36054194 -27.47630919 -23.49358685 0 0 Z " fill="#81D8F9" transform="translate(135,21)"/>
<path d="M0 0 C4.69713652 4.5389428 6.12872823 8.39520217 6.25 14.8125 C6.14993111 20.49974832 5.18346186 24.68673574 1.16015625 28.94921875 C-4.59703946 34.23468893 -8.64323285 35.37275684 -16.3984375 35.28125 C-21.68815692 34.70938844 -25.4983815 32.42044993 -29.3125 28.8125 C-33.29353007 22.17744988 -34.73936392 16.57865706 -33 9 C-31.03228715 3.53413098 -27.75065161 0.18352794 -23 -3 C-14.71929805 -6.52696565 -7.15191296 -5.08886114 0 0 Z " fill="#82D8F8" transform="translate(96,63)"/>
<path d="M0 0 C0 0.66 0 1.32 0 2 C-4.50983576 4.25491788 -8.05423265 4.32431261 -13 4 C-13.99 3.01 -13.99 3.01 -15 2 C-15.50402344 2.47566406 -16.00804688 2.95132812 -16.52734375 3.44140625 C-19.77031219 5.48555223 -22.8353673 5.64032725 -26.5625 5.9375 C-32.69764123 6.55115375 -38.02423016 7.73512576 -43.765625 10.09765625 C-45.83925473 10.93508364 -47.83132161 11.47683428 -50 12 C-54.72296477 13.92774072 -56.59183925 15.54490262 -59 20 C-59.66 20 -60.32 20 -61 20 C-61.99 22.475 -61.99 22.475 -63 25 C-63.99 25 -64.98 25 -66 25 C-67.04644066 26.63790712 -68.0398183 28.31008021 -69 30 C-69.639375 30.598125 -70.27875 31.19625 -70.9375 31.8125 C-73.34496329 34.36587015 -74.60221969 36.93701016 -76.0703125 40.09765625 C-77 42 -77 42 -79 45 C-79.38499891 46.65549531 -79.72793135 48.3222433 -80 50 C-80.66 50 -81.32 50 -82 50 C-82.144375 50.78375 -82.28875 51.5675 -82.4375 52.375 C-83 55 -83 55 -84 57 C-84.2275015 58.87056791 -84.40962811 60.74685958 -84.5625 62.625 C-84.64628906 63.62789063 -84.73007813 64.63078125 -84.81640625 65.6640625 C-84.87699219 66.43492188 -84.93757813 67.20578125 -85 68 C-86.485 68.495 -86.485 68.495 -88 69 C-87.88519969 71.85490236 -87.75847036 74.7084588 -87.625 77.5625 C-87.57859375 78.76229492 -87.57859375 78.76229492 -87.53125 79.98632812 C-87.28844653 84.94356563 -86.50908441 89.23695232 -85 94 C-84.63049535 96.32787927 -84.28647533 98.66045145 -84 101 C-83.01 101 -82.02 101 -81 101 C-80.938125 102.0725 -80.87625 103.145 -80.8125 104.25 C-80.40759449 108.08647451 -80.40759449 108.08647451 -77.6875 109.75 C-73.59398519 113.17712868 -72.20609266 117.87019032 -71 123 C-71.33 123.99 -71.66 124.98 -72 126 C-84.72114338 110.73462794 -91.0266418 91.73812215 -90.3828125 71.88671875 C-88.2310362 50.03960221 -79.89669188 31.61421193 -63 17 C-43.94694981 1.82872574 -23.58779785 -1.92372253 0 0 Z " fill="#93D3E9" transform="translate(95,2)"/>
<path d="M0 0 C4.19505508 0.67120881 5.32052859 2.35351988 8.125 5.5 C9.98173266 7.08871059 11.86896453 8.63211633 13.76953125 10.16796875 C14.44048828 10.82732422 14.44048828 10.82732422 15.125 11.5 C15.125 12.16 15.125 12.82 15.125 13.5 C15.785 13.5 16.445 13.5 17.125 13.5 C19.125 16.5 19.125 16.5 19.15234375 19.37109375 C17.77358585 23.57027657 15.23764557 25.2335676 11.6875 27.5625 C11.05658447 27.99369141 10.42566895 28.42488281 9.77563477 28.86914062 C4.78578164 32.21723647 -0.34764965 35.12689788 -5.875 37.5 C-6.72964844 37.87125 -7.58429688 38.2425 -8.46484375 38.625 C-10.875 39.5 -10.875 39.5 -13.875 39.5 C-13.545 38.51 -13.215 37.52 -12.875 36.5 C-10.109375 35.25390625 -10.109375 35.25390625 -6.625 34.0625 C-1.91180059 32.44700292 1.31378051 30.69032758 5.125 27.5 C7.9375 26.75 7.9375 26.75 10.125 26.5 C10.269375 25.88125 10.41375 25.2625 10.5625 24.625 C11.125 22.5 11.125 22.5 12.125 20.5 C12.785 20.5 13.445 20.5 14.125 20.5 C13.795 18.85 13.465 17.2 13.125 15.5 C12.135 16.16 11.145 16.82 10.125 17.5 C10.0425 16.71625 9.96 15.9325 9.875 15.125 C9.6275 14.25875 9.38 13.3925 9.125 12.5 C7.19169397 11.40833725 7.19169397 11.40833725 5.125 10.5 C3.99609375 8.44140625 3.99609375 8.44140625 3.125 6.5 C-2.96403234 7.5413838 -8.2043749 8.97972218 -13.875 11.5 C-16.52742803 12.26521375 -19.18168116 12.8857343 -21.875 13.5 C-21.875 12.84 -21.875 12.18 -21.875 11.5 C-20.75480469 10.95730469 -19.63460937 10.41460937 -18.48046875 9.85546875 C-17.00765508 9.13313338 -15.53500746 8.41045938 -14.0625 7.6875 C-13.32451172 7.33107422 -12.58652344 6.97464844 -11.82617188 6.60742188 C-11.11396484 6.25615234 -10.40175781 5.90488281 -9.66796875 5.54296875 C-9.0133667 5.22352295 -8.35876465 4.90407715 -7.68432617 4.57495117 C-5.80037046 3.56121952 -5.80037046 3.56121952 -4.31762695 1.90356445 C-2.875 0.5 -2.875 0.5 0 0 Z " fill="#8FCDE4" transform="translate(117.875,112.5)"/>
<path d="M0 0 C4.69713652 4.5389428 6.12872823 8.39520217 6.25 14.8125 C6.14993111 20.49974832 5.18346186 24.68673574 1.16015625 28.94921875 C-3.93960504 33.63112251 -7.1930813 35.13576926 -14.125 35.1875 C-14.99382812 35.20167969 -15.86265625 35.21585938 -16.7578125 35.23046875 C-19 35 -19 35 -21 33 C-18.98177083 33.03255208 -16.96354167 33.06510417 -14.9453125 33.09765625 C-12.91814596 33.12649242 -12.91814596 33.12649242 -11 32 C-8.6670134 31.95977609 -6.33293334 31.95679753 -4 32 C-3.67 30.68 -3.34 29.36 -3 28 C-2.34 28 -1.68 28 -1 28 C-1 27.34 -1 26.68 -1 26 C0 25 1 24 2 23 C4.037175 20.14795499 3.99773115 18.97368129 3.6875 15.375 C3.18233562 12.1482692 3.18233562 12.1482692 2 10 C2.33 9.01 2.66 8.02 3 7 C2.34 7 1.68 7 1 7 C1 6.34 1 5.68 1 5 C0.34 5 -0.32 5 -1 5 C-1.33 4.01 -1.66 3.02 -2 2 C-4.09719872 0.97718482 -4.09719872 0.97718482 -6.5625 0.3125 C-7.38878906 0.06113281 -8.21507813 -0.19023438 -9.06640625 -0.44921875 C-9.70449219 -0.63097656 -10.34257813 -0.81273437 -11 -1 C-11.66 -0.34 -12.32 0.32 -13 1 C-15.1640625 0.9765625 -15.1640625 0.9765625 -17.625 0.625 C-18.44226563 0.51414062 -19.25953125 0.40328125 -20.1015625 0.2890625 C-21.04128906 0.14597656 -21.04128906 0.14597656 -22 0 C-22.33 0.99 -22.66 1.98 -23 3 C-23.66 3 -24.32 3 -25 3 C-25 3.66 -25 4.32 -25 5 C-25.99 5.495 -25.99 5.495 -27 6 C-27.65772428 9.02934491 -27.65772428 9.02934491 -28 12 C-29.65 12.33 -31.3 12.66 -33 13 C-32.87779028 7.1339332 -31.12482374 3.98323311 -27.0859375 -0.26171875 C-18.76159346 -7.19867212 -8.38740451 -5.9679609 0 0 Z " fill="#97C6DA" transform="translate(96,63)"/>
<path d="M0 0 C14.1786004 7.26613082 14.1786004 7.26613082 17.25 13.5625 C16.86626981 17.30386931 14.76189465 18.53192393 12 21 C10.41093266 22.85649574 8.86791332 24.74392784 7.33203125 26.64453125 C6.89246094 27.09183594 6.45289062 27.53914063 6 28 C5.34 28 4.68 28 4 28 C3.690625 28.9590625 3.690625 28.9590625 3.375 29.9375 C2 32 2 32 -0.625 33.125 C-4.99410272 32.96318138 -6.61407187 31.35678218 -9.8984375 28.63671875 C-13.03501247 26.19392151 -16.40228536 24.67036751 -20 23 C-20 22.67 -20 22.34 -20 22 C-16.37 22 -12.74 22 -9 22 C-9.33 22.99 -9.66 23.98 -10 25 C-7.525 25.99 -7.525 25.99 -5 27 C-5 27.66 -5 28.32 -5 29 C1.38320566 27.05258132 4.03817125 25.32017004 8 20 C8.99 19.34 9.98 18.68 11 18 C11.36297936 16.02252878 11.36297936 16.02252878 11.1875 13.875 C11.125625 12.59625 11.06375 11.3175 11 10 C10.01 10.33 9.02 10.66 8 11 C7.34 9.35 6.68 7.7 6 6 C3.69 5.67 1.38 5.34 -1 5 C-0.67 3.35 -0.34 1.7 0 0 Z " fill="#8EC2DA" transform="translate(120,11)"/>
<path d="M0 0 C1.93719378 -0.05406122 3.87481921 -0.09282025 5.8125 -0.125 C6.89144531 -0.14820312 7.97039062 -0.17140625 9.08203125 -0.1953125 C12 0 12 0 15 2 C17.32357511 2.18490007 17.32357511 2.18490007 20 0 C20.5625 1.9375 20.5625 1.9375 21 4 C20.67 4.33 20.34 4.66 20 5 C21.32 5.33 22.64 5.66 24 6 C24 6.66 24 7.32 24 8 C22.85273437 7.84015625 21.70546875 7.6803125 20.5234375 7.515625 C4.96126049 5.58490176 -7.13754217 7.53786845 -21 15 C-21 13.68 -21 12.36 -21 11 C-18.98828125 9.296875 -18.98828125 9.296875 -16.3125 7.75 C-15.44238281 7.22921875 -14.57226562 6.7084375 -13.67578125 6.171875 C-10.86234444 4.93971289 -9.03262798 4.75957544 -6 5 C-5.67 4.01 -5.34 3.02 -5 2 C-3.35 1.67 -1.7 1.34 0 1 C0 0.67 0 0.34 0 0 Z " fill="#89D3ED" transform="translate(75,24)"/>
<path d="M0 0 C0.66 0.33 1.32 0.66 2 1 C1.84273437 1.6703125 1.68546875 2.340625 1.5234375 3.03125 C-0.68100898 15.53408076 0.89654827 26.81296385 7.66796875 37.67578125 C9 40 9 40 9 43 C9.66 43 10.32 43 11 43 C12.2265625 44.3203125 12.2265625 44.3203125 13.625 46.125 C18.1646871 51.60814285 23.81929591 55.52335395 30 59 C28.02 59.495 28.02 59.495 26 60 C26 59.34 26 58.68 26 58 C23.36 57.34 20.72 56.68 18 56 C18 55.34 18 54.68 18 54 C16.68 53.67 15.36 53.34 14 53 C13.938125 52.38125 13.87625 51.7625 13.8125 51.125 C13.18259554 48.72882071 13.18259554 48.72882071 10.5 47.875 C9.2625 47.441875 9.2625 47.441875 8 47 C7.67 46.34 7.34 45.68 7 45 C6.01 44.67 5.02 44.34 4 44 C3.6278958 42.67696283 3.29369827 41.34262065 3 40 C2.34 39.67 1.68 39.34 1 39 C1.04125 37.80375 1.0825 36.6075 1.125 35.375 C1.13175161 31.56034169 0.41139085 28.56998861 -1 25 C-1.88639389 22.34081834 -2.17989025 20.51935359 -2.31640625 17.76953125 C-2.35830078 16.96708984 -2.40019531 16.16464844 -2.44335938 15.33789062 C-2.48267578 14.50451172 -2.52199219 13.67113281 -2.5625 12.8125 C-2.60568359 11.96751953 -2.64886719 11.12253906 -2.69335938 10.25195312 C-2.79931518 8.16815567 -2.9001502 6.08409897 -3 4 C-2.01 4 -1.02 4 0 4 C0 2.68 0 1.36 0 0 Z " fill="#91CFE1" transform="translate(34,64)"/>
<path d="M0 0 C-0.33 1.65 -0.66 3.3 -1 5 C-4.57644848 6.2380014 -7.33694766 5.74926071 -11 5 C-11.33 5.99 -11.66 6.98 -12 8 C-12.66 8 -13.32 8 -14 8 C-14 8.66 -14 9.32 -14 10 C-14.99 10.495 -14.99 10.495 -16 11 C-16.65772428 14.02934491 -16.65772428 14.02934491 -17 17 C-18.65 17.33 -20.3 17.66 -22 18 C-21.87776635 12.13278502 -20.11666669 8.99732513 -16.1015625 4.734375 C-11.55932999 0.98576675 -5.86227996 -0.56731742 0 0 Z " fill="#91D9F0" transform="translate(85,58)"/>
<path d="M0 0 C0 0.66 0 1.32 0 2 C1.32 2.33 2.64 2.66 4 3 C2.65808594 3.05607422 2.65808594 3.05607422 1.2890625 3.11328125 C-10.62727327 3.76118437 -19.52933054 6.36366091 -30 12 C-30 10.68 -30 9.36 -30 8 C-21.65033579 0.42915479 -10.72455531 -0.35162476 0 0 Z " fill="#8BCADE" transform="translate(84,27)"/>
<path d="M0 0 C7.73001197 0.25766707 15.20065198 2.24619328 22 6 C22.875 8.16796875 22.875 8.16796875 23 10 C20.525 9.505 20.525 9.505 18 9 C17.67 9.66 17.34 10.32 17 11 C16.34 11 15.68 11 15 11 C15.33 9.68 15.66 8.36 16 7 C12.42355152 5.7619986 9.66305234 6.25073929 6 7 C5.67 5.68 5.34 4.36 5 3 C4.01 3.33 3.02 3.66 2 4 C1.01 3.01 0.02 2.02 -1 1 C-0.67 0.67 -0.34 0.34 0 0 Z " fill="#96D0E8" transform="translate(96,3)"/>
<path d="M0 0 C1.0828125 0.16371094 2.165625 0.32742187 3.28125 0.49609375 C8.68674192 1.17178024 14.06065617 1.1088986 19.5 1.0625 C21.01980469 1.05573242 21.01980469 1.05573242 22.5703125 1.04882812 C25.04693827 1.03714593 27.52343657 1.02076582 30 1 C27.106225 4.15607625 25.31776405 4.60020703 21 5 C16.47145938 5.18082714 12.39018461 5.19974681 8 4 C6.00211562 3.65421232 4.00240549 3.31856451 2 3 C2 2.34 2 1.68 2 1 C1.34 0.67 0.68 0.34 0 0 Z " fill="#8DCADD" transform="translate(65,124)"/>
<path d="M0 0 C0.33 0.66 0.66 1.32 1 2 C1.763125 2.12375 2.52625 2.2475 3.3125 2.375 C6 3 6 3 7.9375 5 C10.53860145 7.5222802 12.45840313 7.67803665 16 8 C16 9.32 16 10.64 16 12 C18.31 12 20.62 12 23 12 C22.34 13.32 21.68 14.64 21 16 C12.84662018 12.93996609 3.92100762 8.38151142 -1 1 C-0.67 0.67 -0.34 0.34 0 0 Z " fill="#91CFE4" transform="translate(32,134)"/>
<path d="M0 0 C9.99497487 5.21105528 9.99497487 5.21105528 13 9 C13 9.66 13 10.32 13 11 C13.66 11.33 14.32 11.66 15 12 C15 13.32 15 14.64 15 16 C14.34 16 13.68 16 13 16 C12.67 16.66 12.34 17.32 12 18 C11 12.25 11 12.25 11 10 C10.01 10.33 9.02 10.66 8 11 C7.34 9.35 6.68 7.7 6 6 C3.69 5.67 1.38 5.34 -1 5 C-0.67 3.35 -0.34 1.7 0 0 Z " fill="#8BCCE4" transform="translate(120,11)"/>
<path d="M0 0 C1.06528748 2.73019786 1.07998186 3.79298812 0.00390625 6.578125 C-0.47175781 7.45984375 -0.94742188 8.3415625 -1.4375 9.25 C-1.91058594 10.14203125 -2.38367187 11.0340625 -2.87109375 11.953125 C-3.24363281 12.62859375 -3.61617187 13.3040625 -4 14 C-4.99 13.67 -5.98 13.34 -7 13 C-7.6875 10.9375 -7.6875 10.9375 -8 9 C-7.01 8.67 -6.02 8.34 -5 8 C-5 6.68 -5 5.36 -5 4 C-4.34 4 -3.68 4 -3 4 C-2.67 3.01 -2.34 2.02 -2 1 C-1.34 0.67 -0.68 0.34 0 0 Z " fill="#85D0E2" transform="translate(41,49)"/>
<path d="M0 0 C2.475 0.495 2.475 0.495 5 1 C5.33 2.32 5.66 3.64 6 5 C6.66 5 7.32 5 8 5 C8.144375 5.78375 8.28875 6.5675 8.4375 7.375 C8.87798925 9.96421018 8.87798925 9.96421018 10 12 C5.57883696 10.64908907 3.51923342 8.86882275 1 5 C0.25 2.1875 0.25 2.1875 0 0 Z " fill="#8DD2E3" transform="translate(64,84)"/>
<path d="M0 0 C1 3 1 3 1 5 C3.97 5 6.94 5 10 5 C10 5.66 10 6.32 10 7 C11.65 7 13.3 7 15 7 C15 7.33 15 7.66 15 8 C-0.92938497 7.40546697 -0.92938497 7.40546697 -7 4 C-6.1028125 3.566875 -6.1028125 3.566875 -5.1875 3.125 C-2.80672208 1.95257974 -2.80672208 1.95257974 0 0 Z " fill="#89D9EF" transform="translate(63,147)"/>
<path d="M0 0 C0 0.66 0 1.32 0 2 C-0.66 2 -1.32 2 -2 2 C-2 2.66 -2 3.32 -2 4 C-2.61875 4.04125 -3.2375 4.0825 -3.875 4.125 C-4.57625 4.41375 -5.2775 4.7025 -6 5 C-7.2086563 7.79101437 -7.2086563 7.79101437 -8 11 C-8.65411685 12.67163195 -9.31653318 14.34015202 -10 16 C-10.66 16 -11.32 16 -12 16 C-11.87210139 9.86086689 -9.81786473 7.06399567 -5.69140625 2.6015625 C-3.73131398 0.74558599 -2.7207148 0 0 0 Z " fill="#94CBD8" transform="translate(75,60)"/>
<path d="M0 0 C3.63 0 7.26 0 11 0 C10.67 0.99 10.34 1.98 10 3 C12.475 3.99 12.475 3.99 15 5 C15 5.66 15 6.32 15 7 C11.14974121 6.39644592 8.13898841 5.23227397 4.6875 3.4375 C3.80449219 2.98246094 2.92148438 2.52742188 2.01171875 2.05859375 C1.34785156 1.70925781 0.68398437 1.35992187 0 1 C0 0.67 0 0.34 0 0 Z " fill="#91D1E5" transform="translate(100,33)"/>
<path d="M0 0 C-1.29802151 3.89406452 -2.67559288 4.19405992 -6.25 6.0625 C-7.20390625 6.56910156 -8.1578125 7.07570313 -9.140625 7.59765625 C-11.72521252 8.86523401 -14.31158581 9.97467415 -17 11 C-13.04925974 6.52249437 -6.24406437 0 0 0 Z " fill="#95C9DB" transform="translate(51,8)"/>
<path d="M0 0 C0.66 0.33 1.32 0.66 2 1 C1.67 1.99 1.34 2.98 1 4 C-3.98029026 6.42629526 -9.55226422 6.66626984 -15 6 C-15.66 5.34 -16.32 4.68 -17 4 C-14.98177083 4.03255208 -12.96354167 4.06510417 -10.9453125 4.09765625 C-8.91814596 4.12649242 -8.91814596 4.12649242 -7 3 C-4.6670134 2.95977609 -2.33293334 2.95679753 0 3 C0 2.01 0 1.02 0 0 Z " fill="#99C9DB" transform="translate(92,92)"/>
<path d="M0 0 C2.4375 0.75 2.4375 0.75 5 2 C6.32284898 4.92916561 6.04059132 5.87822605 5 9 C4.01 9 3.02 9 2 9 C1.87625 8.360625 1.7525 7.72125 1.625 7.0625 C1.315625 6.0415625 1.315625 6.0415625 1 5 C0.34 4.67 -0.32 4.34 -1 4 C-0.67 2.68 -0.34 1.36 0 0 Z " fill="#82C8E2" transform="translate(36,99)"/>
<path d="M0 0 C0.99 0.33 1.98 0.66 3 1 C2.50628906 1.48210938 2.01257812 1.96421875 1.50390625 2.4609375 C0.86324219 3.09257813 0.22257812 3.72421875 -0.4375 4.375 C-1.07558594 5.00148438 -1.71367188 5.62796875 -2.37109375 6.2734375 C-4.07882176 7.91723061 -4.07882176 7.91723061 -5 10 C-5.66 10 -6.32 10 -7 10 C-6.62952882 7.25851328 -6.31412056 5.41406801 -4.625 3.1875 C-3 2 -3 2 0 2 C0 1.34 0 0.68 0 0 Z " fill="#8BC6D7" transform="translate(50,39)"/>
<path d="M0 0 C0.66 0 1.32 0 2 0 C1.45276317 3.37462715 0.9451 5.08235 -1 8 C-1.38499891 9.65549531 -1.72793135 11.3222433 -2 13 C-2.66 13 -3.32 13 -4 13 C-4.625 11.1875 -4.625 11.1875 -5 9 C-4.34 8.01 -3.68 7.02 -3 6 C-3.66 5.67 -4.32 5.34 -5 5 C-4.360625 4.731875 -3.72125 4.46375 -3.0625 4.1875 C-0.66868314 3.11332248 -0.66868314 3.11332248 0 0 Z " fill="#91D9F3" transform="translate(17,39)"/>
<path d="M0 0 C0.66 0 1.32 0 2 0 C3.23076923 5.41538462 3.23076923 5.41538462 2.0625 8.375 C1.711875 8.91125 1.36125 9.4475 1 10 C-1 8 -1 8 -1.1875 4.4375 C-1 1 -1 1 0 0 Z " fill="#88D5F2" transform="translate(129,21)"/>
<path d="M0 0 C0.66 0.99 1.32 1.98 2 3 C1.39671875 3.04898438 0.7934375 3.09796875 0.171875 3.1484375 C-1.02695313 3.26058594 -1.02695313 3.26058594 -2.25 3.375 C-3.43335937 3.47941406 -3.43335937 3.47941406 -4.640625 3.5859375 C-7.085877 4.01507113 -8.84836903 4.78600638 -11 6 C-11 5.34 -11 4.68 -11 4 C-7.44532095 0.44532095 -5.0361783 -0.78340551 0 0 Z " fill="#90C2D3" transform="translate(121,113)"/>
<path d="M0 0 C0.66 0 1.32 0 2 0 C2.8441938 3.97977076 3.44687265 7.97007218 4 12 C2.02 12.99 2.02 12.99 0 14 C0.66 11.36 1.32 8.72 2 6 C1.01 5.67 0.02 5.34 -1 5 C-0.67 3.35 -0.34 1.7 0 0 Z " fill="#8ED1EC" transform="translate(97,70)"/>
<path d="M0 0 C1.99609375 0.0859375 1.99609375 0.0859375 4.4375 0.375 C5.64212891 0.51035156 5.64212891 0.51035156 6.87109375 0.6484375 C9 1 9 1 11 2 C10.67 2.66 10.34 3.32 10 4 C2.49230769 4.36923077 2.49230769 4.36923077 0 2.5 C-0.33 2.005 -0.66 1.51 -1 1 C-0.67 0.67 -0.34 0.34 0 0 Z " fill="#92C8E0" transform="translate(96,3)"/>
<path d="M0 0 C0.66 0.33 1.32 0.66 2 1 C1.34 6.94 0.68 12.88 0 19 C-0.33 19 -0.66 19 -1 19 C-1 14.71 -1 10.42 -1 6 C-1.66 6 -2.32 6 -3 6 C-3 5.34 -3 4.68 -3 4 C-2.01 4 -1.02 4 0 4 C0 2.68 0 1.36 0 0 Z " fill="#99CCDD" transform="translate(34,64)"/>
<path d="M0 0 C0.66 0.99 1.32 1.98 2 3 C0.75108386 3.48198463 -0.49918808 3.96045677 -1.75 4.4375 C-2.79414062 4.83775391 -2.79414062 4.83775391 -3.859375 5.24609375 C-5.89059003 5.96146693 -7.9035291 6.51365652 -10 7 C-10 6.34 -10 5.68 -10 5 C-6.7 3.35 -3.4 1.7 0 0 Z " fill="#96CCDF" transform="translate(106,119)"/>
<path d="M0 0 C0.66 0 1.32 0 2 0 C2 4 2 4 1 7 C0.01 7.495 0.01 7.495 -1 8 C-1 8.66 -1 9.32 -1 10 C-1.99 9.67 -2.98 9.34 -4 9 C-2.68 6.03 -1.36 3.06 0 0 Z " fill="#9CD3E3" transform="translate(12,45)"/>
<path d="M0 0 C3.36591866 1.44253657 5.51047079 3.33264727 8 6 C7.67 6.99 7.34 7.98 7 9 C5.62437146 7.71034824 4.29233607 6.37310707 3 5 C3 4.34 3 3.68 3 3 C2.01 2.67 1.02 2.34 0 2 C0 1.34 0 0.68 0 0 Z " fill="#8BC8D7" transform="translate(123,117)"/>
<path d="M0 0 C0.5625 1.9375 0.5625 1.9375 1 4 C0.67 4.33 0.34 4.66 0 5 C-0.23287008 6.68183948 -0.41264166 8.3712416 -0.5625 10.0625 C-0.64628906 10.98160156 -0.73007813 11.90070313 -0.81640625 12.84765625 C-0.87699219 13.55792969 -0.93757812 14.26820312 -1 15 C-1.33 15 -1.66 15 -2 15 C-2 10.38 -2 5.76 -2 1 C-1.34 0.67 -0.68 0.34 0 0 Z " fill="#8EDBFD" transform="translate(9,70)"/>
<path d="M0 0 C1.9375 0.6875 1.9375 0.6875 4 2 C4.875 4.4375 4.875 4.4375 5 7 C4.01 8.485 4.01 8.485 3 10 C2.34 10 1.68 10 1 10 C1 9.01 1 8.02 1 7 C1.66 7 2.32 7 3 7 C3 5.68 3 4.36 3 3 C2.01 2.67 1.02 2.34 0 2 C0 1.34 0 0.68 0 0 Z " fill="#9CC4D0" transform="translate(132,20)"/>
<path d="M0 0 C2.64 0.33 5.28 0.66 8 1 C8 1.99 8 2.98 8 4 C5.03 3.505 5.03 3.505 2 3 C2 2.34 2 1.68 2 1 C1.34 0.67 0.68 0.34 0 0 Z " fill="#96D1E1" transform="translate(65,124)"/>
<path d="M0 0 C4.75 0.875 4.75 0.875 7 2 C7 2.66 7 3.32 7 4 C5.35 3.67 3.7 3.34 2 3 C1.67 3.66 1.34 4.32 1 5 C0.34 5 -0.32 5 -1 5 C-0.67 3.35 -0.34 1.7 0 0 Z " fill="#86D0EE" transform="translate(112,9)"/>
<path d="M0 0 C0 0.66 0 1.32 0 2 C1.32 2.66 2.64 3.32 4 4 C-2.4 4.36923077 -2.4 4.36923077 -5.4375 2.5 C-5.953125 2.005 -6.46875 1.51 -7 1 C-4.53721199 -0.231394 -2.7204945 -0.07159196 0 0 Z " fill="#9EDFFC" transform="translate(80,152)"/>
<path d="M0 0 C0.75 1.75 0.75 1.75 1 4 C-0.9375 6.25 -0.9375 6.25 -3 8 C-3.1875 5.125 -3.1875 5.125 -3 2 C-2.01 1.34 -1.02 0.68 0 0 Z " fill="#84C7D7" transform="translate(41,49)"/>
<path d="M0 0 C1.485 0.99 1.485 0.99 3 2 C2.67 3.98 2.34 5.96 2 8 C1.34 8 0.68 8 0 8 C0 5.36 0 2.72 0 0 Z " fill="#9CC2CD" transform="translate(134,127)"/>
<path d="M0 0 C2.46800047 1.15173355 4.04783565 2.04783565 6 4 C4.35 4.66 2.7 5.32 1 6 C0 5 0 5 -0.0625 2.4375 C-0.041875 1.633125 -0.02125 0.82875 0 0 Z " fill="#9DD3E7" transform="translate(127,16)"/>
<path d="M0 0 C0 0.66 0 1.32 0 2 C1.65 2 3.3 2 5 2 C5 2.33 5 2.66 5 3 C-1.93 2.505 -1.93 2.505 -9 2 C-9 1.67 -9 1.34 -9 1 C-2.25 0 -2.25 0 0 0 Z " fill="#96CFEB" transform="translate(73,152)"/>
<path d="M0 0 C0.99 0.99 1.98 1.98 3 3 C2.67 3.99 2.34 4.98 2 6 C0.68 5.34 -0.64 4.68 -2 4 C-1.34 2.68 -0.68 1.36 0 0 Z " fill="#88CCE3" transform="translate(28,128)"/>
<path d="M0 0 C0.99 0.33 1.98 0.66 3 1 C3 1.66 3 2.32 3 3 C4.32 3.33 5.64 3.66 7 4 C5.35 4.66 3.7 5.32 2 6 C2 5.34 2 4.68 2 4 C1.01 3.67 0.02 3.34 -1 3 C-0.67 2.01 -0.34 1.02 0 0 Z " fill="#82D2ED" transform="translate(57,121)"/>
<path d="M0 0 C2.475 0.495 2.475 0.495 5 1 C5 1.99 5 2.98 5 4 C3.35 3.67 1.7 3.34 0 3 C0 2.01 0 1.02 0 0 Z " fill="#9CD1E9" transform="translate(48,114)"/>
<path d="M0 0 C1.32 0 2.64 0 4 0 C3.67 1.32 3.34 2.64 3 4 C2.01 4 1.02 4 0 4 C-0.33 3.34 -0.66 2.68 -1 2 C-0.67 1.34 -0.34 0.68 0 0 Z " fill="#8ED5F3" transform="translate(72,90)"/>
<path d="M0 0 C0.66 0 1.32 0 2 0 C3.07525194 2.65228812 4.09456151 5.28368454 5 8 C2 7 2 7 0.8125 5.125 C0 3 0 3 0 0 Z " fill="#90CDD6" transform="translate(64,84)"/>
<path d="M0 0 C-0.33 0.99 -0.66 1.98 -1 3 C-4 4 -4 4 -7 3 C-7 2.34 -7 1.68 -7 1 C-4 0 -4 0 0 0 Z " fill="#97C7E0" transform="translate(84,58)"/>
<path d="M0 0 C0.33 0.66 0.66 1.32 1 2 C-0.13304992 5.39914975 -1.12518475 6.05254451 -4 8 C-4.66 7.67 -5.32 7.34 -6 7 C-4.02 4.69 -2.04 2.38 0 0 Z " fill="#A6CDE4" transform="translate(25,26)"/>
</svg>
